<?xml version="1.0" standalone="no"?>
<!DOCTYPE svg PUBLIC "-//W3C//DTD SVG 20010904//EN"
 "http://www.w3.org/TR/2001/REC-SVG-20010904/DTD/svg10.dtd">
<svg version="1.0" xmlns="http://www.w3.org/2000/svg"
 width="600.000000pt" height="300.000000pt" viewBox="0 0 600.000000 300.000000"
 preserveAspectRatio="xMidYMid meet">
<metadata>
Created by potrace 1.13, written by Peter Selinger 2001-2015
</metadata>
<g transform="translate(0.000000,300.000000) scale(0.100000,-0.100000)"
fill="#000000" stroke="none">
<path d="M5275 2074 c-86 -22 -142 -60 -171 -116 -9 -17 -18 -73 -22 -131 l-7
-102 -52 -3 -53 -3 0 -50 0 -49 49 0 c28 0 53 -4 56 -10 3 -5 7 -159 8 -342
l2 -333 57 -3 58 -3 2 343 3 343 140 0 140 0 5 -285 c4 -248 7 -289 23 -318
35 -64 147 -110 237 -97 119 18 190 102 190 226 0 71 -6 79 -56 79 -52 0 -64
-16 -64 -90 0 -40 -5 -56 -24 -75 -47 -47 -121 -44 -160 8 -20 27 -21 40 -21
290 l0 262 145 5 145 5 0 45 0 45 -145 5 -145 5 -3 93 -3 93 -57 -3 -57 -3 -5
-90 -5 -90 -140 0 -140 0 -3 65 c-6 127 28 170 136 170 45 0 61 4 66 16 8 22
7 66 -2 81 -8 13 -95 24 -127 17z"/>
<path d="M2520 2063 c-45 -7 -152 -44 -177 -60 -62 -41 -100 -168 -90 -306 8
-107 21 -151 60 -193 55 -59 112 -72 453 -103 146 -13 164 -30 164 -149 0
-132 -49 -159 -270 -149 -169 7 -189 20 -200 127 l-5 55 -104 3 -103 3 4 -89
c7 -151 54 -220 174 -257 128 -40 419 -37 555 6 122 39 162 116 163 314 2 253
-55 301 -390 325 -215 15 -248 23 -268 65 -24 50 -21 135 7 175 29 43 58 51
192 53 148 3 179 -5 199 -47 9 -19 16 -47 16 -64 0 -46 17 -53 121 -50 l94 3
3 58 c6 110 -38 201 -114 240 -62 31 -170 47 -316 46 -79 -1 -154 -4 -168 -6z"/>
<path d="M3450 2052 c-152 -43 -188 -90 -197 -263 -11 -194 56 -297 214 -329
26 -5 123 -14 215 -19 250 -15 268 -28 268 -193 0 -77 -4 -102 -22 -138 -32
-62 -69 -72 -273 -73 -245 -3 -274 15 -291 178 l-7 66 -56 -3 -56 -3 1 -76 c2
-148 48 -220 161 -256 48 -15 91 -18 258 -18 188 1 204 2 265 25 54 21 70 33
96 71 38 57 59 169 51 267 -18 215 -69 253 -364 273 -177 12 -263 23 -293 39
-33 18 -50 70 -50 159 0 98 18 143 69 168 30 15 63 18 211 18 200 0 234 -8
256 -61 8 -19 14 -50 14 -71 0 -58 9 -65 76 -61 l59 3 -3 60 c-4 90 -20 135
-61 176 -57 58 -116 72 -311 76 -135 2 -177 -1 -230 -15z"/>
<path d="M58 2048 c-2 -7 -4 -260 -3 -563 l0 -550 105 0 105 0 0 462 c0 254 2
460 4 458 2 -2 29 -62 60 -132 55 -124 373 -755 393 -780 8 -10 57 -13 184
-13 l174 0 -2 563 -3 562 -100 0 -100 0 -2 -454 c-1 -249 -3 -455 -5 -457 -2
-1 -33 59 -68 134 -36 75 -138 281 -227 457 l-161 320 -175 3 c-135 2 -176 0
-179 -10z"/>
<path d="M1176 2052 c-3 -5 20 -85 50 -178 59 -178 192 -601 251 -794 20 -63
40 -123 45 -133 8 -16 24 -17 170 -15 l160 3 13 40 c16 48 109 343 137 435 11
36 51 160 88 275 107 327 110 337 110 357 0 16 -10 18 -110 18 l-109 0 -56
-177 c-31 -98 -65 -203 -75 -233 -43 -133 -120 -380 -136 -440 -9 -36 -20 -68
-24 -73 -3 -4 -22 50 -42 120 -35 127 -243 777 -254 794 -7 11 -211 12 -218 1z"/>
<path d="M4366 1715 c-126 -35 -161 -106 -173 -350 -6 -122 13 -268 42 -330
40 -83 134 -119 310 -118 107 1 127 4 188 28 118 48 147 124 147 381 -1 274
-33 347 -169 388 -68 20 -273 20 -345 1z m319 -106 c16 -8 36 -28 44 -44 24
-49 35 -230 23 -352 -17 -164 -43 -187 -212 -187 -194 0 -212 21 -218 270 -6
240 11 297 98 323 50 15 228 8 265 -10z"/>
</g>
</svg>
